<svg id="visual" viewBox="0 0 960 540" width="960" height="540" xmlns="http://www.w3.org/2000/svg" xmlns:xlink="http://www.w3.org/1999/xlink" version="1.1"><rect x="0" y="0" width="960" height="540" fill="#000000"></rect><path d="M0 409L22.8 416.8C45.7 424.7 91.3 440.3 137 429.2C182.7 418 228.3 380 274 382.2C319.7 384.3 365.3 426.7 411.2 437.5C457 448.3 503 427.7 548.8 413.7C594.7 399.7 640.3 392.3 686 384.3C731.7 376.3 777.3 367.7 823 363.5C868.7 359.3 914.3 359.7 937.2 359.8L960 360L960 541L937.2 541C914.3 541 868.7 541 823 541C777.3 541 731.7 541 686 541C640.3 541 594.7 541 548.8 541C503 541 457 541 411.2 541C365.3 541 319.7 541 274 541C228.3 541 182.7 541 137 541C91.3 541 45.7 541 22.8 541L0 541Z" fill="#EFD81D" stroke-linecap="round" stroke-linejoin="miter"></path></svg>